# xmcd CD database file
#
# Track frame offsets:
#	180
#	18736
#	36720
#	57253
#	70790
#	88386
#	102853
#	125046
#	172936
#
# Disc length: 2396 seconds
#
# Revision: 0
# Processed by: cddbd v1.5.1PL0 Copyright (c) Steve Scherf et al.
# Submitted via: CDex 1.51
#
DISCID=81095a09
DTITLE=MANOEUVRES D'AUTOMNE - Un Peu D'Air
DYEAR=1995
DGENRE=Progressive Rock
TTITLE0=Derisoire Massacre
TTITLE1=Reflexions
TTITLE2=Guissan
TTITLE3=Un Peu D'Air
TTITLE4=Les Catastrophes
TTITLE5=Moraliste
TTITLE6=Messe Basse
TTITLE7=Aciferville - Tungstene
TTITLE8=Il Pleut !
EXTD=YEAR: 1995
EXTT0=
EXTT1=
EXTT2=
EXTT3=
EXTT4=
EXTT5=
EXTT6=
EXTT7=
EXTT8=
PLAYORDER=
